<?xml version="1.0" encoding="UTF-8" ?>
<!DOCTYPE svg PUBLIC "-//W3C//DTD SVG 1.1//EN" "http://www.w3.org/Graphics/SVG/1.1/DTD/svg11.dtd">
<svg width="250pt" height="250pt" viewBox="0 0 250 250" version="1.1" xmlns="http://www.w3.org/2000/svg">
<g id="#d74445ff">
</g>
<g id="#222222ff">
<path fill="#222222" opacity="1.00" d=" M 104.19 25.72 C 120.28 22.93 136.96 23.20 152.87 27.00 C 155.91 28.00 159.98 28.65 161.13 32.12 C 164.83 41.21 167.55 50.69 171.32 59.73 C 181.28 62.51 191.94 64.34 200.49 70.57 C 203.34 72.72 206.30 76.10 205.26 79.95 C 204.10 83.55 200.93 85.96 197.82 87.82 C 190.98 91.76 183.29 93.89 175.66 95.70 C 159.05 99.42 141.98 100.52 125.00 100.74 C 108.41 100.47 91.75 99.30 75.51 95.73 C 67.39 93.74 59.13 91.53 52.01 86.99 C 48.93 84.95 45.65 81.98 45.67 77.99 C 46.04 74.08 49.34 71.35 52.41 69.35 C 60.79 64.22 70.51 62.02 79.99 59.90 C 82.99 51.28 86.09 42.70 89.19 34.12 C 89.94 32.39 90.43 30.21 92.27 29.29 C 95.93 27.26 100.12 26.50 104.19 25.72 Z" />
<path fill="#222222" opacity="1.00" d=" M 77.05 132.82 C 78.59 132.01 80.36 132.82 81.98 132.93 C 92.96 135.32 105.62 137.61 112.71 147.28 C 117.59 153.99 123.05 160.63 125.50 168.70 C 127.04 162.86 130.65 157.90 134.03 153.00 C 137.13 148.84 139.92 144.20 144.39 141.33 C 151.85 136.40 160.79 134.62 169.42 132.85 C 170.99 132.68 172.58 132.59 174.17 132.47 C 175.91 143.03 171.05 153.19 167.60 162.91 C 175.36 164.46 182.84 167.10 190.22 169.92 C 198.67 173.34 207.14 177.07 214.44 182.63 C 217.02 184.79 219.92 187.33 220.36 190.87 C 221.00 195.56 221.41 200.27 221.68 204.99 C 200.56 230.85 168.65 247.48 135.36 250.00 L 115.63 250.00 C 82.59 247.66 50.83 231.35 29.66 205.89 C 29.33 201.05 30.25 196.23 30.70 191.42 C 30.98 188.17 33.21 185.59 35.58 183.56 C 41.03 179.04 47.41 175.81 53.83 172.91 C 63.35 168.72 73.19 165.14 83.36 162.91 C 80.53 155.76 77.92 148.45 76.57 140.85 C 76.26 138.20 75.79 135.31 77.05 132.82 Z" />
</g>
<g id="#333333ff">
<path fill="#333333" opacity="1.00" d=" M 75.51 95.73 C 91.75 99.30 108.41 100.47 125.00 100.74 C 141.98 100.52 159.05 99.42 175.66 95.70 C 175.90 100.31 175.07 104.85 173.73 109.24 C 170.78 117.05 164.83 124.38 156.35 126.30 C 148.98 127.87 140.03 127.29 134.56 121.48 C 130.51 117.26 130.15 111.15 127.89 106.02 C 127.00 103.85 123.88 104.01 123.18 106.22 C 121.03 111.11 120.67 116.88 116.97 121.02 C 111.61 127.27 102.28 127.92 94.73 126.28 C 86.50 124.43 80.73 117.40 77.62 109.93 C 76.24 105.32 75.16 100.58 75.51 95.73 Z" />
</g>
<g id="#fbc4a6ff">
<path fill="#fbc4a6" opacity="1.00" d=" M 123.18 106.22 C 123.88 104.01 127.00 103.85 127.89 106.02 C 130.15 111.15 130.51 117.26 134.56 121.48 C 140.03 127.29 148.98 127.87 156.35 126.30 C 164.83 124.38 170.78 117.05 173.73 109.24 C 174.03 117.31 172.22 125.32 169.42 132.85 C 160.79 134.62 151.85 136.40 144.39 141.33 C 139.92 144.20 137.13 148.84 134.03 153.00 C 130.65 157.90 127.04 162.86 125.50 168.70 C 123.05 160.63 117.59 153.99 112.71 147.28 C 105.62 137.61 92.96 135.32 81.98 132.93 C 79.48 125.52 77.60 117.80 77.62 109.93 C 80.73 117.40 86.50 124.43 94.73 126.28 C 102.28 127.92 111.61 127.27 116.97 121.02 C 120.67 116.88 121.03 111.11 123.18 106.22 Z" />
</g>
</svg>
