<?xml version="1.0" encoding="UTF-8" ?>
<!DOCTYPE svg PUBLIC "-//W3C//DTD SVG 1.1//EN" "http://www.w3.org/Graphics/SVG/1.1/DTD/svg11.dtd">
<svg width="1772pt" height="1613pt" viewBox="0 0 1772 1613" version="1.1" xmlns="http://www.w3.org/2000/svg">
<g id="#000000ff">
<path fill="#000000" opacity="1.00" d=" M 220.99 0.00 L 1439.50 0.00 C 1480.27 4.14 1519.56 19.53 1553.35 42.59 C 1570.11 54.12 1585.93 67.26 1598.90 83.01 C 1609.56 95.12 1618.50 108.63 1626.45 122.64 C 1636.46 141.54 1644.76 161.50 1649.34 182.44 C 1654.00 206.00 1653.21 230.13 1653.21 254.01 C 1653.38 366.96 1652.81 479.91 1653.54 592.86 C 1667.77 603.12 1682.48 612.78 1695.84 624.20 C 1710.79 635.91 1722.80 650.81 1734.09 665.96 C 1754.08 691.79 1766.43 723.30 1770.20 755.69 C 1770.88 760.76 1770.68 765.94 1772.00 770.93 L 1772.00 946.61 C 1771.04 952.35 1771.66 958.18 1771.45 963.97 C 1770.94 977.43 1770.07 990.96 1767.07 1004.13 C 1758.05 1041.82 1740.64 1077.77 1715.09 1107.05 C 1701.76 1122.12 1686.72 1135.70 1670.29 1147.31 C 1664.84 1151.31 1659.24 1155.08 1653.74 1159.00 C 1653.51 1217.65 1653.54 1276.31 1653.54 1334.97 C 1653.74 1354.04 1653.69 1373.23 1650.46 1392.08 C 1643.59 1436.20 1625.09 1478.39 1597.64 1513.57 C 1577.08 1540.08 1551.07 1562.31 1521.86 1578.77 C 1491.89 1595.42 1458.63 1605.54 1424.88 1610.93 C 1400.99 1613.09 1376.98 1612.28 1353.03 1612.48 C 1135.02 1612.42 917.01 1612.40 699.00 1612.31 C 561.67 1612.31 424.34 1612.42 287.02 1612.23 C 261.96 1611.92 236.65 1612.10 212.02 1606.84 C 204.00 1605.29 196.19 1602.88 188.45 1600.33 C 111.26 1576.31 47.21 1515.17 17.78 1440.10 C 8.66 1417.13 3.07 1392.75 1.41 1368.08 C 0.26 1349.08 0.93 1330.04 0.68 1311.02 C 0.55 1254.03 0.51 1197.04 0.50 1140.04 C 0.42 1135.74 0.83 1131.40 0.00 1127.15 L 0.00 305.61 C 2.26 266.50 -2.84 226.75 4.91 188.00 C 10.55 161.36 21.34 135.91 35.87 112.92 C 60.66 74.26 95.88 41.78 138.01 22.99 C 164.06 10.54 192.31 2.88 220.99 0.00 M 831.96 77.56 C 633.98 77.60 435.99 77.40 238.01 77.84 C 194.25 79.09 150.86 97.91 121.34 130.48 C 98.20 155.94 80.77 187.92 77.29 222.54 C 99.48 198.97 126.80 180.47 156.33 167.34 C 187.27 153.73 221.13 146.39 254.98 147.25 C 327.32 147.27 399.65 147.16 471.99 147.18 C 671.68 147.16 871.37 146.74 1071.06 147.09 C 1184.69 147.07 1298.33 147.15 1411.97 147.13 C 1455.06 145.97 1497.27 160.87 1533.42 183.61 C 1550.13 193.44 1563.90 207.28 1579.28 218.92 C 1572.96 182.65 1556.01 147.39 1528.05 122.90 C 1500.02 97.05 1463.46 79.13 1424.95 77.89 C 1393.31 77.49 1361.66 77.67 1330.02 77.63 C 1303.99 77.84 1277.97 76.33 1251.94 77.02 C 1199.62 78.05 1147.30 77.46 1094.98 76.85 C 1056.98 76.78 1018.98 76.80 980.99 77.22 C 931.32 77.70 881.64 77.47 831.96 77.56 M 273.61 215.54 C 264.32 215.64 255.08 216.67 245.92 218.09 C 189.80 227.28 139.39 261.94 107.43 308.52 C 86.90 338.43 73.71 373.64 71.16 409.93 C 70.15 420.61 71.09 431.34 70.72 442.04 C 70.57 449.50 71.38 457.64 76.32 463.62 C 82.33 471.40 93.32 474.35 102.64 471.73 C 107.79 470.12 111.66 465.99 114.71 461.71 C 119.04 454.64 118.87 445.98 119.14 437.98 C 119.65 426.65 119.04 415.24 120.90 404.00 C 129.48 345.41 173.91 294.05 230.39 276.53 C 250.94 270.00 272.58 267.58 294.07 267.41 C 325.06 267.66 356.05 267.44 387.04 267.51 C 705.03 267.59 1023.02 267.72 1341.01 267.51 C 1352.68 267.45 1364.37 267.57 1376.00 268.58 C 1386.81 269.51 1397.35 272.51 1407.32 276.72 C 1423.93 282.91 1439.70 291.53 1453.52 302.67 C 1477.31 321.72 1493.87 348.60 1503.80 377.16 C 1508.11 391.35 1509.64 406.22 1510.15 421.00 C 1510.65 442.33 1510.33 463.68 1510.51 485.02 C 1510.74 514.57 1509.82 544.17 1511.97 573.67 C 1533.07 574.22 1554.19 574.03 1575.30 574.05 C 1575.30 543.38 1575.30 512.70 1575.28 482.03 C 1575.23 457.33 1575.39 432.63 1574.64 407.94 C 1574.21 396.63 1575.03 385.29 1573.84 374.01 C 1572.57 360.99 1569.56 348.15 1565.05 335.88 C 1553.44 303.79 1531.13 276.39 1504.27 255.74 C 1474.30 232.19 1437.24 217.03 1398.96 215.60 C 1371.63 215.24 1344.29 215.11 1316.96 215.04 C 969.17 215.40 621.39 214.53 273.61 215.54 M 560.47 382.46 C 553.60 386.82 550.43 395.18 549.91 403.00 C 549.10 425.95 550.08 448.96 548.50 471.88 C 547.71 475.18 544.84 477.61 541.75 478.72 C 534.45 481.16 526.83 482.41 519.48 484.64 C 502.18 490.28 485.59 497.90 469.57 506.48 C 436.45 524.33 406.50 548.73 384.22 579.20 C 374.90 592.25 366.58 606.04 359.50 620.43 C 331.14 680.37 332.29 753.70 363.82 812.20 C 381.43 845.53 408.09 874.18 440.58 893.41 C 464.51 907.10 490.18 917.44 516.04 926.83 C 560.39 942.59 605.75 955.39 649.64 972.46 C 665.43 978.71 680.97 986.05 694.59 996.32 C 706.54 1005.38 717.17 1016.69 723.53 1030.42 C 731.83 1048.83 732.96 1070.18 727.40 1089.54 C 722.83 1106.30 711.98 1120.74 699.03 1132.03 C 685.56 1143.60 669.54 1152.09 652.62 1157.36 C 611.17 1169.06 564.86 1162.53 528.35 1139.66 C 513.97 1130.40 501.46 1118.42 490.81 1105.08 C 477.68 1089.20 468.21 1070.80 457.95 1053.04 C 454.32 1046.94 449.40 1041.17 442.72 1038.37 C 433.88 1035.69 424.78 1039.16 416.70 1042.66 C 395.70 1052.19 375.26 1062.94 354.12 1072.16 C 344.62 1076.86 334.37 1080.36 325.86 1086.83 C 318.25 1092.60 315.77 1102.98 317.01 1112.09 C 318.52 1124.10 325.43 1134.35 331.21 1144.68 C 354.81 1185.45 387.23 1221.18 425.84 1248.21 C 460.43 1272.39 500.71 1287.19 541.61 1296.61 C 545.59 1297.10 548.85 1300.86 548.69 1304.89 C 549.47 1329.60 548.96 1354.32 549.67 1379.03 C 549.72 1384.21 552.36 1389.26 556.52 1392.35 C 561.94 1396.80 569.16 1398.27 576.03 1398.29 C 596.68 1398.77 617.34 1398.22 638.00 1398.44 C 647.27 1398.55 657.13 1398.25 665.31 1393.34 C 670.95 1390.51 674.25 1384.29 674.60 1378.13 C 675.83 1352.20 674.45 1326.23 675.47 1300.30 C 679.04 1297.00 683.78 1295.47 688.36 1294.17 C 717.99 1285.59 747.45 1275.19 773.79 1258.85 C 789.12 1249.66 802.50 1237.73 815.59 1225.67 C 843.31 1199.22 864.58 1166.00 876.77 1129.67 C 890.73 1086.74 892.93 1039.69 881.19 995.98 C 871.38 958.99 849.68 926.02 822.93 899.03 C 792.63 868.39 753.53 848.14 713.25 833.90 C 686.45 824.70 659.60 815.65 632.80 806.42 C 606.86 797.57 580.54 789.64 555.46 778.49 C 541.17 772.08 527.49 763.83 516.81 752.23 C 504.39 740.68 498.23 723.65 497.76 706.94 C 497.44 691.81 502.17 676.83 510.01 663.97 C 519.05 649.06 532.44 637.06 547.58 628.56 C 565.27 618.95 585.00 612.97 605.13 611.74 C 622.04 610.56 639.00 613.58 655.03 618.88 C 673.14 624.96 689.60 635.45 703.34 648.65 C 714.45 659.44 723.48 672.13 731.91 685.06 C 736.77 691.60 740.87 699.91 748.85 703.05 C 755.23 704.94 761.93 702.66 767.59 699.67 C 775.64 695.16 784.02 691.28 792.42 687.48 C 814.63 677.19 836.82 666.83 859.40 657.39 C 865.12 654.79 869.93 649.91 871.81 643.85 C 874.82 635.37 873.43 625.69 868.86 618.04 C 848.72 583.89 822.28 553.36 790.84 529.16 C 761.49 506.36 727.35 489.72 691.26 480.81 C 686.02 479.25 680.28 477.84 676.35 473.81 C 675.24 466.94 675.28 459.95 675.28 453.01 C 675.46 439.66 675.36 426.31 675.47 412.96 C 676.04 403.27 674.74 392.94 668.80 384.94 C 658.65 380.00 647.23 378.48 636.05 378.31 C 618.73 377.51 601.39 377.85 584.06 377.85 C 576.11 378.43 567.53 378.16 560.47 382.46 M 229.47 407.76 C 225.18 408.36 220.97 409.81 217.40 412.28 C 204.83 421.09 203.57 442.45 215.99 451.96 C 220.77 456.58 227.73 457.39 234.07 457.30 C 271.70 457.08 309.34 457.57 346.97 457.10 C 352.85 456.81 359.20 457.64 364.55 454.62 C 373.68 449.47 378.02 438.02 376.08 427.94 C 375.24 422.97 372.56 418.51 369.27 414.76 C 363.85 409.12 355.67 407.03 348.04 407.41 C 323.37 407.33 298.69 407.29 274.01 407.33 C 259.17 407.53 244.29 407.10 229.47 407.76 M 845.43 407.68 C 835.23 409.92 827.93 419.34 824.83 428.90 C 823.15 442.70 834.96 456.58 848.93 456.83 C 867.31 457.06 885.68 456.96 904.06 456.76 C 913.35 456.48 922.14 449.69 924.51 440.67 C 926.67 432.45 924.40 423.42 919.18 416.81 C 914.34 409.73 905.47 405.95 897.00 406.77 C 879.81 406.92 862.58 406.24 845.43 407.68 M 1047.21 407.25 C 1042.79 407.38 1038.37 407.50 1033.99 407.91 C 1027.99 408.68 1022.92 412.55 1019.05 417.00 C 1016.79 419.74 1014.30 422.54 1013.45 426.10 C 1010.26 437.56 1016.81 450.80 1027.78 455.36 C 1033.59 457.54 1039.94 456.48 1046.00 456.83 C 1075.66 456.84 1105.32 457.05 1134.98 457.26 C 1140.64 457.36 1146.58 457.40 1151.82 454.94 C 1156.92 452.47 1160.40 447.58 1162.50 442.45 C 1167.98 428.40 1158.43 410.59 1143.56 407.67 C 1137.40 407.24 1131.22 407.12 1125.04 407.01 C 1099.10 406.97 1073.15 407.07 1047.21 407.25 M 1376.31 412.34 C 1370.53 413.65 1364.92 416.47 1361.05 421.05 C 1357.62 425.23 1355.68 430.59 1355.60 435.99 C 1355.64 463.35 1355.60 490.70 1355.65 518.05 C 1355.67 521.27 1355.40 524.57 1356.49 527.67 C 1358.52 533.89 1363.45 538.74 1368.90 542.13 C 1376.03 545.76 1384.32 544.55 1391.97 543.86 C 1400.61 540.98 1406.17 531.86 1406.38 522.98 C 1406.20 492.98 1406.76 462.97 1406.18 432.98 C 1404.86 419.09 1389.53 409.54 1376.31 412.34 M 87.29 553.18 C 76.97 556.00 69.60 566.42 69.71 577.01 C 69.76 599.00 69.59 620.99 69.82 642.99 C 69.77 651.76 75.57 660.10 83.62 663.45 C 92.07 666.92 102.26 666.01 109.85 660.86 C 114.30 657.64 118.02 652.72 118.24 647.05 C 118.70 623.73 118.38 600.39 118.43 577.07 C 118.37 568.28 113.29 559.71 105.60 555.46 C 100.08 552.42 93.38 551.59 87.29 553.18 M 1382.53 640.79 C 1356.73 642.40 1330.86 647.02 1306.89 656.94 C 1275.82 670.12 1247.99 690.35 1224.59 714.56 C 1194.93 745.25 1176.02 785.25 1167.54 826.85 C 1163.03 849.58 1160.73 872.92 1162.58 896.08 C 1164.96 936.48 1177.05 976.66 1199.56 1010.46 C 1209.49 1024.91 1220.31 1038.83 1232.80 1051.18 C 1261.38 1079.10 1297.58 1098.82 1336.16 1108.95 C 1359.26 1114.88 1383.31 1114.79 1406.99 1114.66 C 1459.34 1114.22 1511.69 1115.03 1564.03 1114.15 C 1602.12 1107.13 1636.05 1084.19 1660.17 1054.33 C 1573.79 1052.71 1487.40 1054.31 1401.03 1053.15 C 1369.74 1053.01 1338.20 1045.67 1311.01 1029.93 C 1298.96 1022.76 1288.19 1013.58 1278.48 1003.50 C 1266.04 990.01 1254.63 975.42 1245.86 959.27 C 1228.51 926.65 1224.06 888.33 1229.13 852.04 C 1234.65 812.58 1254.23 775.48 1282.69 747.73 C 1294.95 735.44 1310.02 726.39 1325.37 718.49 C 1346.41 707.99 1369.39 701.09 1392.90 699.42 C 1402.25 698.84 1411.62 698.82 1420.99 698.71 C 1502.37 697.87 1583.75 698.89 1665.13 697.82 C 1651.44 682.71 1635.72 669.34 1618.19 658.88 C 1607.02 652.34 1595.23 646.63 1582.73 643.22 C 1569.06 639.95 1554.91 639.72 1540.93 639.82 C 1510.29 639.75 1479.66 640.24 1449.02 640.11 C 1426.86 640.24 1404.67 639.68 1382.53 640.79 M 86.39 753.51 C 76.94 756.54 70.54 766.20 70.27 775.96 C 69.71 792.66 69.16 809.45 71.04 826.09 C 73.23 837.75 85.93 844.69 97.15 843.76 C 105.07 843.34 113.08 838.79 116.19 831.28 C 119.11 824.24 118.13 816.47 118.31 809.05 C 118.04 796.60 119.06 784.05 117.15 771.68 C 114.77 758.29 99.29 749.03 86.39 753.51 M 1393.29 779.29 C 1380.44 781.38 1368.03 786.05 1356.96 792.87 C 1326.98 811.08 1309.19 846.31 1309.44 881.04 C 1309.50 900.02 1316.19 918.56 1327.12 933.96 C 1337.59 948.88 1352.13 961.21 1369.22 967.82 C 1387.45 974.98 1407.70 976.39 1426.91 972.95 C 1446.02 968.58 1463.92 958.71 1477.44 944.48 C 1493.53 928.19 1502.52 905.70 1504.05 883.02 C 1506.97 845.89 1486.13 808.20 1453.35 790.62 C 1435.10 780.94 1413.85 776.28 1393.29 779.29 M 89.42 937.65 C 78.99 939.07 70.64 948.37 70.31 958.88 C 69.34 986.58 69.86 1014.30 69.69 1042.02 C 69.55 1050.08 73.30 1058.49 80.56 1062.49 C 91.70 1069.32 107.50 1065.49 114.82 1054.84 C 116.99 1051.67 118.30 1047.87 118.28 1044.02 C 118.43 1016.32 118.47 988.62 117.98 960.93 C 117.72 946.83 103.19 935.25 89.42 937.65 M 87.37 1146.56 C 77.79 1149.51 69.84 1158.63 69.92 1168.92 C 69.99 1184.88 69.37 1200.87 70.55 1216.81 C 72.17 1228.99 85.42 1236.72 97.04 1235.55 C 104.34 1235.09 110.68 1230.51 114.88 1224.76 C 119.15 1217.61 118.10 1208.96 118.18 1201.02 C 117.76 1188.03 119.30 1174.91 116.99 1162.05 C 113.34 1150.14 99.22 1142.84 87.37 1146.56 M 1511.58 1183.46 C 1511.40 1229.65 1512.42 1275.87 1510.76 1322.05 C 1510.43 1332.71 1510.96 1343.46 1509.09 1354.02 C 1505.11 1383.28 1491.05 1410.11 1473.61 1433.54 C 1449.63 1464.68 1413.11 1485.26 1374.50 1491.66 C 1363.47 1493.73 1352.19 1493.58 1341.02 1493.46 C 1160.34 1493.78 979.67 1493.31 798.99 1493.38 C 688.00 1493.55 577.01 1493.47 466.02 1493.24 C 413.34 1492.94 360.66 1493.30 307.99 1493.35 C 299.34 1493.30 290.69 1493.64 282.06 1493.16 C 261.34 1492.12 240.49 1488.29 221.61 1479.47 C 183.77 1462.12 152.60 1431.01 134.46 1393.61 C 127.83 1379.85 122.71 1365.19 121.04 1349.95 C 120.06 1342.23 118.75 1334.20 114.23 1327.68 C 110.18 1321.75 103.23 1317.67 95.97 1317.76 C 86.77 1317.96 78.26 1324.22 74.38 1332.40 C 71.13 1339.28 73.23 1346.85 73.92 1354.02 C 81.06 1409.13 110.83 1460.35 153.42 1495.72 C 182.65 1519.95 218.19 1537.45 256.09 1542.23 C 275.27 1545.04 294.69 1544.10 314.00 1544.27 C 446.33 1544.17 578.66 1544.06 710.99 1543.80 C 929.34 1543.41 1147.69 1543.56 1366.04 1543.40 C 1397.87 1543.91 1430.04 1538.31 1459.16 1525.19 C 1475.31 1518.01 1490.21 1508.22 1503.61 1496.73 C 1530.11 1474.29 1552.21 1445.80 1564.00 1412.92 C 1571.22 1392.43 1574.27 1370.65 1574.46 1348.99 C 1574.55 1293.77 1574.29 1238.55 1574.43 1183.33 C 1553.48 1183.39 1532.51 1183.50 1511.58 1183.46 M 1376.43 1233.65 C 1365.82 1235.98 1357.10 1245.94 1357.21 1256.97 C 1356.62 1284.29 1356.02 1311.66 1356.81 1338.97 C 1361.89 1354.51 1383.23 1360.57 1396.39 1351.51 C 1402.40 1347.51 1405.64 1340.19 1405.59 1333.09 C 1405.42 1307.74 1405.81 1282.39 1405.27 1257.05 C 1404.97 1250.04 1401.75 1243.12 1396.31 1238.64 C 1390.92 1234.05 1383.34 1232.06 1376.43 1233.65 M 228.51 1319.72 C 218.04 1321.09 210.44 1331.06 208.83 1341.06 C 207.19 1349.85 210.38 1359.93 218.31 1364.70 C 225.86 1369.81 235.31 1369.47 244.03 1369.33 C 277.35 1369.36 310.67 1369.32 343.99 1368.91 C 351.30 1368.94 359.16 1368.81 365.36 1364.37 C 377.59 1356.48 378.90 1337.30 369.16 1326.95 C 365.18 1322.26 359.10 1319.54 352.98 1319.42 C 334.65 1319.59 316.31 1319.20 297.98 1319.03 C 274.82 1318.57 251.66 1319.40 228.51 1319.72 M 864.31 1319.26 C 858.52 1319.40 852.72 1319.48 846.94 1319.81 C 837.62 1320.95 830.48 1328.81 827.51 1337.33 C 823.55 1350.88 833.83 1366.75 847.97 1368.27 C 862.97 1368.51 877.98 1368.57 892.99 1368.52 C 899.64 1368.44 906.75 1369.15 912.77 1365.70 C 921.02 1361.60 925.33 1351.97 924.49 1343.02 C 923.84 1332.71 917.06 1322.15 906.60 1319.67 C 892.52 1318.99 878.41 1319.01 864.31 1319.26 M 1057.43 1319.54 C 1049.31 1319.77 1041.17 1319.41 1033.08 1320.07 C 1019.72 1322.43 1011.13 1337.65 1014.43 1350.48 C 1015.99 1358.06 1021.78 1364.48 1029.04 1367.08 C 1036.36 1369.88 1044.34 1368.79 1051.99 1368.88 C 1081.03 1369.37 1110.07 1368.89 1139.11 1368.80 C 1151.92 1368.77 1162.92 1356.65 1162.45 1343.99 C 1162.08 1330.94 1150.20 1319.36 1137.12 1319.49 C 1110.56 1319.40 1083.99 1319.43 1057.43 1319.54 Z" />
</g>
</svg>
