<?xml version="1.0" encoding="UTF-8" ?>
<!DOCTYPE svg PUBLIC "-//W3C//DTD SVG 1.1//EN" "http://www.w3.org/Graphics/SVG/1.1/DTD/svg11.dtd">
<svg width="1323pt" height="1323pt" viewBox="0 0 1323 1323" version="1.1" xmlns="http://www.w3.org/2000/svg">
<g id="#ffffffff">
<path fill="#ffffff" opacity="1.00" d=" M 127.41 70.51 C 146.64 64.49 166.87 62.10 186.97 62.14 C 469.99 62.08 753.02 62.01 1036.04 62.07 C 1052.70 62.09 1069.48 62.14 1085.92 65.18 C 1109.78 69.57 1132.58 79.09 1152.89 92.30 C 1165.50 100.61 1177.53 110.04 1187.48 121.48 C 1199.01 134.17 1208.56 148.63 1215.86 164.13 C 1224.49 182.19 1230.25 201.90 1230.60 222.01 C 1230.96 316.20 1230.38 410.39 1231.15 504.58 C 1250.08 517.57 1269.45 530.85 1283.63 549.21 C 1290.45 557.61 1296.95 566.33 1302.17 575.83 C 1310.77 591.48 1316.17 608.86 1318.10 626.61 C 1318.64 634.06 1318.92 641.54 1319.15 649.01 C 1319.12 693.34 1318.94 737.66 1318.72 781.99 C 1318.60 792.89 1317.41 803.83 1314.65 814.39 C 1306.83 843.88 1292.24 871.92 1270.63 893.65 C 1259.01 905.99 1245.33 916.13 1231.29 925.52 C 1231.13 974.01 1231.20 1022.50 1231.15 1070.99 C 1230.80 1131.15 1200.76 1190.56 1151.96 1225.90 C 1125.75 1245.41 1094.15 1256.68 1062.08 1261.77 C 1048.74 1262.32 1035.36 1261.83 1022.01 1262.00 C 743.68 1262.00 465.34 1261.99 187.01 1262.00 C 176.54 1262.20 166.08 1260.85 155.88 1258.52 C 123.01 1250.72 92.06 1234.74 67.04 1212.00 C 35.62 1183.72 12.75 1145.61 4.34 1104.05 C 1.19 1088.91 0.54 1073.38 0.69 1057.96 C 0.55 962.62 0.54 867.29 0.46 771.96 C 0.41 770.71 0.25 769.47 0.00 768.25 L 0.00 632.71 C 0.93 623.17 0.34 613.58 0.51 604.01 C 0.49 481.35 0.58 358.69 0.55 236.02 C 0.73 225.95 1.43 215.86 3.23 205.93 C 10.35 168.58 31.08 134.53 58.99 109.01 C 78.54 91.21 102.36 78.62 127.41 70.51 M 200.07 120.67 C 191.04 120.74 182.01 120.46 172.99 121.04 C 141.93 122.72 111.75 136.82 90.46 159.49 C 73.09 178.72 59.86 202.71 57.28 228.82 C 67.58 218.84 78.30 209.13 90.56 201.59 C 115.23 185.70 143.72 175.55 173.02 173.17 C 181.65 172.40 190.32 172.73 198.98 172.66 C 482.64 172.51 766.30 172.39 1049.97 172.61 C 1081.63 171.66 1112.82 182.02 1139.62 198.47 C 1152.87 206.19 1164.02 216.80 1175.97 226.29 C 1172.53 203.28 1162.66 181.16 1147.33 163.61 C 1130.75 145.60 1109.68 131.20 1085.94 124.63 C 1073.98 121.11 1061.42 120.55 1049.03 120.59 C 1020.37 120.29 991.70 120.80 963.05 120.23 C 945.69 119.95 928.33 120.20 910.97 120.35 C 878.30 120.69 845.62 120.21 812.94 120.06 C 756.95 120.04 700.97 120.43 644.98 120.46 C 496.68 120.47 348.37 120.41 200.07 120.67 M 168.98 228.04 C 139.47 236.31 112.59 253.41 92.36 276.41 C 69.90 301.73 55.19 334.21 52.73 368.10 C 52.18 376.72 52.55 385.37 52.53 394.01 C 52.63 398.53 53.10 403.37 55.83 407.15 C 60.75 414.48 71.45 417.21 79.23 412.97 C 84.30 410.06 87.56 404.58 88.29 398.84 C 89.51 384.89 88.33 370.69 91.41 356.93 C 97.07 330.22 112.69 305.97 134.02 289.05 C 156.31 270.77 185.54 262.74 214.02 262.41 C 253.35 262.31 292.67 262.38 332.00 262.37 C 554.34 262.50 776.68 262.37 999.02 262.36 C 1007.36 262.30 1015.73 262.23 1024.05 263.02 C 1037.89 264.04 1050.73 269.90 1063.05 275.87 C 1075.52 282.43 1087.00 291.12 1096.13 301.90 C 1105.65 313.09 1112.90 326.09 1118.15 339.78 C 1122.30 350.69 1123.76 362.41 1124.22 374.01 C 1125.07 412.75 1123.52 451.55 1125.65 490.27 C 1141.48 490.51 1157.31 490.45 1173.15 490.38 C 1173.14 448.93 1173.26 407.49 1172.73 366.04 C 1172.46 356.07 1172.89 346.04 1171.39 336.14 C 1168.62 316.55 1160.58 297.82 1148.78 281.98 C 1138.91 268.70 1126.61 257.33 1113.05 247.90 C 1090.54 232.41 1063.50 222.92 1036.03 223.17 C 1013.34 222.89 990.65 222.73 967.96 222.78 C 797.97 222.79 627.98 222.78 457.98 222.78 C 376.66 222.61 295.33 223.18 214.01 223.11 C 198.89 223.14 183.63 224.07 168.98 228.04 M 416.16 348.18 C 411.86 351.76 409.63 357.41 409.37 362.92 C 408.82 379.89 409.02 396.89 408.33 413.85 C 407.14 418.81 401.26 419.78 397.06 420.93 C 378.98 424.98 362.02 432.86 345.88 441.80 C 327.44 452.27 310.39 465.38 296.24 481.22 C 286.49 491.88 278.74 504.14 271.64 516.66 C 252.75 551.05 247.59 592.54 256.66 630.64 C 267.41 676.16 299.52 716.37 342.24 735.75 C 379.37 753.71 419.41 764.24 458.21 777.80 C 476.78 784.42 495.86 790.57 512.44 801.52 C 522.26 808.12 531.27 816.48 536.97 826.98 C 545.82 843.62 546.21 864.29 538.67 881.49 C 531.94 896.78 518.95 908.57 504.45 916.45 C 493.58 922.52 481.50 926.30 469.13 927.64 C 444.55 930.75 418.95 925.85 397.44 913.50 C 384.96 906.45 374.36 896.48 365.42 885.36 C 356.09 873.66 348.86 860.50 341.58 847.49 C 338.59 842.37 334.51 837.29 328.66 835.44 C 320.93 833.91 313.49 837.39 306.66 840.57 C 290.15 848.46 273.70 856.49 257.00 863.98 C 251.25 866.63 245.08 868.94 240.60 873.62 C 236.86 877.34 235.56 882.84 235.59 887.97 C 235.85 896.37 240.02 903.90 244.03 911.06 C 263.39 945.78 291.09 975.97 324.62 997.43 C 348.47 1012.32 375.33 1021.70 402.55 1028.25 C 405.52 1028.57 408.32 1030.79 408.37 1033.96 C 409.14 1053.34 407.97 1072.77 409.43 1092.13 C 410.79 1098.77 417.56 1102.86 423.92 1103.63 C 439.24 1104.93 454.64 1104.00 470.00 1104.28 C 478.74 1104.23 488.24 1104.90 495.97 1100.05 C 500.26 1097.77 502.42 1092.83 502.52 1088.14 C 503.23 1069.11 502.06 1050.05 503.18 1031.03 C 505.32 1029.51 507.54 1027.98 510.11 1027.29 C 532.56 1020.88 554.90 1013.15 574.99 1001.05 C 587.35 993.81 598.04 984.18 608.49 974.48 C 624.96 958.64 638.21 939.46 647.37 918.53 C 662.50 883.68 665.92 843.89 657.02 806.95 C 649.45 775.76 630.37 748.51 607.28 726.71 C 583.53 704.81 553.63 690.97 523.27 680.81 C 506.54 675.29 489.90 669.47 473.24 663.73 C 453.74 657.21 434.06 651.07 415.13 643.00 C 400.97 636.86 387.46 628.01 378.60 615.12 C 370.75 603.06 368.84 587.54 372.76 573.77 C 377.43 556.52 389.63 541.97 404.78 532.81 C 422.45 522.26 443.44 516.95 464.01 518.71 C 482.20 520.54 500.08 526.97 514.57 538.26 C 526.07 546.84 535.10 558.19 542.91 570.12 C 546.40 575.46 549.88 580.99 554.88 585.07 C 557.73 587.17 561.58 587.39 564.94 586.58 C 570.05 585.35 574.40 582.28 579.10 580.07 C 599.34 570.57 619.61 561.15 640.15 552.34 C 647.30 549.50 651.06 541.37 650.52 533.99 C 650.36 528.80 648.00 524.05 645.27 519.77 C 626.96 490.35 602.60 464.43 573.33 445.73 C 555.68 434.55 536.27 426.14 516.01 421.01 C 511.69 419.96 507.43 418.47 503.78 415.90 C 502.17 401.31 503.32 386.62 503.27 371.99 C 503.46 364.29 502.99 356.05 498.34 349.57 C 488.47 344.38 476.95 344.28 466.06 344.20 C 454.69 344.31 443.31 343.90 431.94 344.23 C 426.55 344.54 420.65 344.80 416.16 348.18 M 168.51 366.75 C 157.94 368.67 151.78 381.17 155.04 391.03 C 156.68 396.64 161.31 401.24 166.93 402.84 C 169.86 403.73 172.96 403.43 175.99 403.47 C 205.31 403.44 234.64 403.74 263.97 403.32 C 267.99 403.25 272.02 401.74 274.95 398.96 C 281.34 392.75 282.38 381.93 277.31 374.60 C 273.90 368.54 266.60 366.05 259.99 365.95 C 234.32 365.74 208.64 366.05 182.97 365.93 C 178.14 365.94 173.28 365.96 168.51 366.75 M 628.38 366.49 C 621.17 368.90 615.71 375.57 613.95 382.88 C 613.00 393.41 622.46 403.51 633.03 403.31 C 646.02 403.34 659.01 403.32 672.00 403.18 C 678.58 403.11 685.51 399.38 687.84 392.98 C 692.65 381.01 683.25 365.32 669.93 365.55 C 656.08 365.87 642.17 364.82 628.38 366.49 M 768.47 366.69 C 762.73 368.42 757.78 372.86 755.23 378.28 C 750.38 388.98 759.06 403.27 771.04 403.13 C 796.35 403.44 821.68 403.28 847.00 403.53 C 852.16 403.52 858.09 402.93 861.75 398.81 C 867.61 392.85 868.30 383.02 864.22 375.89 C 861.18 370.41 855.44 366.13 849.04 365.99 C 832.02 365.52 815.00 365.76 797.98 365.75 C 788.14 366.00 778.23 365.17 768.47 366.69 M 1022.33 370.41 C 1015.23 372.62 1009.26 379.27 1009.30 386.94 C 1009.34 408.65 1009.18 430.35 1009.37 452.06 C 1009.30 458.15 1013.84 463.04 1018.57 466.29 C 1023.48 469.34 1029.57 468.62 1035.06 468.18 C 1039.19 467.85 1042.23 464.59 1044.50 461.42 C 1047.17 457.90 1047.57 453.29 1047.51 449.02 C 1047.15 428.03 1047.87 407.03 1047.20 386.05 C 1046.87 374.29 1032.96 366.28 1022.33 370.41 M 64.49 474.64 C 56.88 477.16 51.40 484.98 51.64 493.00 C 51.76 509.32 51.51 525.65 51.82 541.97 C 51.80 549.89 58.42 556.73 66.02 558.10 C 74.82 560.06 86.05 555.44 88.06 546.00 C 88.92 530.67 88.17 515.30 88.48 499.95 C 88.43 494.11 88.64 487.75 85.42 482.61 C 81.13 475.84 72.21 472.36 64.49 474.64 M 958.72 558.70 C 935.18 571.65 914.10 589.44 898.16 611.12 C 878.45 638.37 868.02 671.59 865.60 704.94 C 862.42 748.39 874.48 793.50 902.09 827.62 C 922.23 854.67 951.28 874.42 983.10 885.19 C 999.40 890.92 1016.76 892.99 1033.99 892.83 C 1076.66 892.79 1119.34 893.06 1162.01 892.58 C 1165.39 892.73 1168.66 891.74 1171.92 890.93 C 1183.67 887.84 1194.87 882.77 1205.09 876.19 C 1217.27 868.60 1227.39 858.30 1236.86 847.62 C 1171.92 846.63 1106.96 847.62 1042.02 846.69 C 1021.43 846.24 1000.62 842.23 982.23 832.67 C 968.09 825.67 956.09 814.99 946.03 802.95 C 937.74 792.88 929.89 782.23 924.64 770.21 C 913.80 745.80 911.44 718.04 916.35 691.89 C 921.96 661.43 938.64 633.13 962.41 613.32 C 980.95 599.09 1002.87 589.00 1025.97 585.10 C 1037.51 583.04 1049.27 583.57 1060.94 583.30 C 1120.80 582.63 1180.66 583.09 1240.53 582.65 C 1236.42 578.73 1232.59 574.52 1228.39 570.71 C 1215.60 559.00 1200.73 549.44 1184.45 543.37 C 1173.78 539.51 1162.27 539.17 1151.05 539.16 C 1111.69 539.40 1072.32 538.96 1032.96 539.61 C 1007.28 540.67 981.33 546.10 958.72 558.70 M 66.08 623.15 C 58.38 624.77 52.51 632.11 52.19 639.90 C 51.70 652.75 51.13 665.69 52.77 678.47 C 55.91 690.76 72.94 695.13 82.43 687.34 C 87.25 683.90 88.24 677.54 88.26 672.04 C 88.11 660.66 88.90 649.24 87.49 637.92 C 86.12 628.20 75.57 621.23 66.08 623.15 M 1038.48 642.73 C 1018.35 645.70 999.36 657.19 988.30 674.41 C 974.75 694.42 970.41 721.41 980.07 743.94 C 986.62 759.44 998.31 772.97 1013.28 780.82 C 1029.10 788.85 1047.79 790.74 1065.03 786.82 C 1084.59 781.74 1102.17 768.53 1111.62 750.55 C 1118.15 737.50 1121.64 722.60 1119.74 708.00 C 1118.38 691.24 1110.34 675.38 1098.59 663.49 C 1083.06 647.98 1060.26 640.15 1038.48 642.73 M 63.43 761.62 C 56.98 763.70 52.37 770.24 52.23 776.98 C 51.65 797.62 51.49 818.28 51.73 838.94 C 51.81 845.57 55.27 852.71 61.88 854.96 C 72.31 860.08 87.13 852.90 88.21 840.99 C 88.44 819.96 88.52 798.92 87.83 777.90 C 87.62 766.25 74.30 757.38 63.43 761.62 M 64.39 916.50 C 57.94 918.93 52.28 924.85 51.92 931.99 C 51.83 944.03 51.54 956.09 52.22 968.13 C 53.00 976.34 60.97 982.54 68.95 982.86 C 75.51 983.51 82.11 980.09 85.76 974.69 C 88.52 969.96 88.01 964.27 88.16 959.02 C 87.74 948.72 89.13 938.32 87.26 928.11 C 84.65 918.81 73.42 913.27 64.39 916.50 M 1124.87 1047.00 C 1124.43 1056.31 1124.78 1065.72 1122.89 1074.90 C 1119.86 1091.06 1113.07 1106.37 1104.02 1120.05 C 1085.24 1150.57 1051.37 1170.65 1015.90 1174.23 C 1004.93 1174.90 993.93 1174.27 982.95 1174.51 C 842.97 1174.76 703.00 1174.38 563.03 1174.48 C 453.00 1174.59 342.97 1174.23 232.94 1174.39 C 222.33 1174.22 211.67 1174.84 201.10 1173.57 C 184.72 1171.93 168.43 1167.34 154.39 1158.58 C 125.23 1141.50 102.37 1113.40 92.79 1080.88 C 90.20 1072.86 90.61 1064.20 87.77 1056.25 C 85.45 1049.65 79.26 1043.89 72.00 1043.81 C 61.35 1043.59 51.71 1054.42 54.11 1065.04 C 57.23 1098.93 71.84 1131.37 94.10 1156.98 C 116.23 1182.40 145.96 1201.93 179.09 1209.19 C 199.08 1213.90 219.71 1212.50 240.06 1212.68 C 499.71 1212.48 759.36 1212.43 1019.02 1212.17 C 1047.75 1212.38 1076.88 1205.61 1101.53 1190.56 C 1124.50 1176.09 1144.13 1155.97 1157.08 1132.04 C 1167.60 1112.47 1172.42 1090.16 1172.55 1068.03 C 1172.69 1026.54 1172.42 985.04 1172.53 943.55 C 1156.81 943.66 1141.09 943.62 1125.37 943.70 C 1125.34 978.13 1125.88 1012.58 1124.87 1047.00 M 1023.43 981.60 C 1015.86 983.65 1010.29 991.16 1010.35 998.97 C 1010.57 1019.27 1008.76 1039.60 1010.29 1059.88 C 1014.44 1073.05 1034.62 1076.91 1043.18 1065.97 C 1047.14 1061.69 1046.76 1055.44 1046.84 1050.03 C 1046.48 1032.66 1047.15 1015.27 1046.42 997.90 C 1046.21 986.90 1033.99 977.69 1023.43 981.60 M 168.40 1045.54 C 156.06 1048.92 150.81 1066.26 158.95 1076.04 C 163.20 1080.78 169.83 1082.57 176.02 1082.54 C 202.68 1082.53 229.35 1082.52 256.01 1082.21 C 259.99 1082.14 264.11 1082.41 267.89 1080.91 C 273.13 1078.97 277.87 1074.71 279.08 1069.10 C 280.00 1064.67 280.19 1059.85 278.25 1055.66 C 275.65 1049.73 269.69 1045.04 263.06 1045.08 C 231.51 1044.78 199.92 1043.97 168.40 1045.54 M 628.45 1045.73 C 622.92 1047.43 618.56 1052.02 616.42 1057.31 C 612.39 1067.78 620.54 1081.17 631.94 1081.65 C 644.61 1081.92 657.29 1081.91 669.96 1081.89 C 675.00 1081.91 680.50 1080.70 683.85 1076.64 C 690.90 1069.16 689.74 1056.37 682.55 1049.39 C 679.77 1046.59 675.91 1044.86 671.95 1044.93 C 657.45 1044.54 642.91 1044.53 628.45 1045.73 M 768.49 1045.70 C 758.33 1047.89 752.23 1060.01 755.56 1069.66 C 757.62 1077.22 765.44 1082.01 773.01 1082.21 C 797.99 1082.31 822.97 1082.41 847.95 1082.13 C 857.14 1082.22 865.29 1074.06 865.69 1064.98 C 866.39 1054.77 857.32 1045.01 847.06 1045.11 C 830.02 1045.01 812.99 1045.06 795.95 1045.07 C 786.80 1045.29 777.61 1044.83 768.49 1045.70 Z" />
</g>
</svg>
